<svg xmlns="http://www.w3.org/2000/svg" xmlns:xlink="http://www.w3.org/1999/xlink" width="1080" zoomAndPan="magnify" viewBox="0 0 810 809.999993" height="1080" preserveAspectRatio="xMidYMid meet" version="1.0"><defs><clipPath id="dfbb3b1110"><path d="M 48.222656 50.910156 L 754.722656 50.910156 L 754.722656 757.410156 L 48.222656 757.410156 Z M 48.222656 50.910156 " clip-rule="nonzero"/></clipPath></defs><g clip-path="url(#dfbb3b1110)"><path fill="#9fbb73" d="M 755.050781 404.324219 C 755.050781 599.511719 596.824219 757.738281 401.636719 757.738281 C 206.453125 757.738281 48.222656 599.511719 48.222656 404.324219 C 48.222656 209.140625 206.453125 50.910156 401.636719 50.910156 C 596.824219 50.910156 755.050781 209.140625 755.050781 404.324219 Z M 264.554688 284.378906 C 255.09375 284.378906 247.421875 292.050781 247.421875 301.515625 L 247.421875 541.40625 C 247.421875 550.867188 255.09375 558.542969 264.554688 558.542969 L 504.449219 558.542969 C 513.914062 558.542969 521.585938 550.867188 521.585938 541.40625 L 521.585938 361.484375 L 555.855469 361.484375 L 555.855469 541.40625 C 555.855469 569.796875 532.839844 592.8125 504.449219 592.8125 L 264.554688 592.8125 C 236.164062 592.8125 213.152344 569.796875 213.152344 541.40625 L 213.152344 301.515625 C 213.152344 273.125 236.164062 250.109375 264.554688 250.109375 L 444.476562 250.109375 L 444.476562 284.378906 Z M 526.601562 220.855469 C 533.292969 214.164062 544.144531 214.164062 550.835938 220.855469 L 585.105469 255.125 C 591.796875 261.816406 591.796875 272.667969 585.105469 279.359375 L 448.023438 416.441406 C 446.144531 418.320312 443.851562 419.738281 441.328125 420.582031 L 389.921875 437.714844 C 383.765625 439.765625 376.976562 438.164062 372.386719 433.574219 C 367.796875 428.984375 366.195312 422.199219 368.246094 416.042969 L 385.382812 364.636719 C 386.222656 362.113281 387.640625 359.816406 389.519531 357.9375 Z M 526.601562 220.855469 " fill-opacity="1" fill-rule="evenodd"/></g></svg>