<svg xmlns="http://www.w3.org/2000/svg" xmlns:xlink="http://www.w3.org/1999/xlink" width="1080" zoomAndPan="magnify" viewBox="0 0 810 809.999993" height="1080" preserveAspectRatio="xMidYMid meet" version="1.0"><defs><clipPath id="c5d510a005"><path d="M 46.207031 46.207031 L 372 46.207031 L 372 372 L 46.207031 372 Z M 46.207031 46.207031 " clip-rule="nonzero"/></clipPath><clipPath id="0e9b6a8ffa"><path d="M 438 46.207031 L 763.957031 46.207031 L 763.957031 372 L 438 372 Z M 438 46.207031 " clip-rule="nonzero"/></clipPath><clipPath id="c768206b45"><path d="M 438 438 L 763.957031 438 L 763.957031 763.957031 L 438 763.957031 Z M 438 438 " clip-rule="nonzero"/></clipPath><clipPath id="343a5278d2"><path d="M 46.207031 438 L 372 438 L 372 763.957031 L 46.207031 763.957031 Z M 46.207031 438 " clip-rule="nonzero"/></clipPath></defs><g clip-path="url(#c5d510a005)"><path fill="#9fbb73" d="M 68.632812 371.359375 L 348.9375 371.359375 C 361.269531 371.359375 371.359375 361.269531 371.359375 348.9375 L 371.359375 68.632812 C 371.359375 56.300781 361.269531 46.207031 348.9375 46.207031 L 68.632812 46.207031 C 56.300781 46.207031 46.207031 56.300781 46.207031 68.632812 L 46.207031 348.9375 C 46.207031 361.269531 56.300781 371.359375 68.632812 371.359375 Z M 91.058594 91.058594 L 326.511719 91.058594 L 326.511719 326.511719 L 91.058594 326.511719 Z M 91.058594 91.058594 " fill-opacity="1" fill-rule="nonzero"/></g><g clip-path="url(#0e9b6a8ffa)"><path fill="#9fbb73" d="M 741.359375 46.207031 L 461.054688 46.207031 C 448.722656 46.207031 438.632812 56.300781 438.632812 68.632812 L 438.632812 348.9375 C 438.632812 361.269531 448.722656 371.359375 461.054688 371.359375 L 741.359375 371.359375 C 753.691406 371.359375 763.78125 361.269531 763.78125 348.9375 L 763.78125 68.632812 C 763.78125 56.300781 753.691406 46.207031 741.359375 46.207031 Z M 718.933594 326.511719 L 483.480469 326.511719 L 483.480469 91.058594 L 718.933594 91.058594 Z M 718.933594 326.511719 " fill-opacity="1" fill-rule="nonzero"/></g><g clip-path="url(#c768206b45)"><path fill="#9fbb73" d="M 741.359375 438.632812 L 461.054688 438.632812 C 448.722656 438.632812 438.632812 448.722656 438.632812 461.054688 L 438.632812 741.359375 C 438.632812 753.691406 448.722656 763.78125 461.054688 763.78125 L 741.359375 763.78125 C 753.691406 763.78125 763.78125 753.691406 763.78125 741.359375 L 763.78125 461.054688 C 763.78125 448.722656 753.691406 438.632812 741.359375 438.632812 Z M 718.933594 718.933594 L 483.480469 718.933594 L 483.480469 483.480469 L 718.933594 483.480469 Z M 718.933594 718.933594 " fill-opacity="1" fill-rule="nonzero"/></g><g clip-path="url(#343a5278d2)"><path fill="#9fbb73" d="M 46.207031 741.359375 C 46.207031 753.691406 56.300781 763.78125 68.632812 763.78125 L 348.9375 763.78125 C 361.269531 763.78125 371.359375 753.691406 371.359375 741.359375 L 371.359375 461.054688 C 371.359375 448.722656 361.269531 438.632812 348.9375 438.632812 L 68.632812 438.632812 C 56.300781 438.632812 46.207031 448.722656 46.207031 461.054688 Z M 91.058594 483.480469 L 326.511719 483.480469 L 326.511719 718.933594 L 91.058594 718.933594 Z M 91.058594 483.480469 " fill-opacity="1" fill-rule="nonzero"/></g></svg>