<svg xmlns="http://www.w3.org/2000/svg" xmlns:xlink="http://www.w3.org/1999/xlink" width="1080" zoomAndPan="magnify" viewBox="0 0 810 809.999993" height="1080" preserveAspectRatio="xMidYMid meet" version="1.0"><defs><clipPath id="206d5ef0ff"><path d="M 48.152344 48.152344 L 762 48.152344 L 762 762 L 48.152344 762 Z M 48.152344 48.152344 " clip-rule="nonzero"/></clipPath></defs><g clip-path="url(#206d5ef0ff)"><path fill="#9fbb73" d="M 404.984375 48.152344 C 207.914062 48.152344 48.152344 207.914062 48.152344 405 C 48.152344 602.085938 207.914062 761.847656 404.984375 761.847656 C 602.054688 761.847656 761.832031 602.085938 761.832031 405 C 761.832031 207.914062 602.027344 48.152344 404.984375 48.152344 Z M 587.183594 606.953125 C 587.183594 607.980469 587.132812 609.003906 587.035156 610.027344 C 586.933594 611.050781 586.785156 612.066406 586.582031 613.074219 C 586.382812 614.082031 586.136719 615.078125 585.839844 616.0625 C 585.539062 617.042969 585.195312 618.011719 584.804688 618.960938 C 584.414062 619.910156 583.976562 620.839844 583.492188 621.746094 C 583.007812 622.652344 582.484375 623.535156 581.914062 624.390625 C 581.34375 625.246094 580.734375 626.070312 580.085938 626.867188 C 579.433594 627.664062 578.746094 628.425781 578.023438 629.152344 C 577.296875 629.882812 576.539062 630.574219 575.746094 631.226562 C 574.957031 631.882812 574.132812 632.496094 573.28125 633.070312 C 572.425781 633.640625 571.550781 634.171875 570.644531 634.660156 C 569.742188 635.148438 568.8125 635.589844 567.867188 635.988281 C 566.917969 636.382812 565.953125 636.734375 564.972656 637.035156 C 563.988281 637.339844 562.996094 637.59375 561.988281 637.796875 C 560.980469 638.003906 559.96875 638.15625 558.945312 638.261719 C 557.921875 638.371094 556.898438 638.425781 555.871094 638.429688 L 479.441406 638.816406 C 478.40625 638.820312 477.375 638.777344 476.34375 638.679688 C 475.3125 638.582031 474.292969 638.4375 473.277344 638.238281 C 472.261719 638.042969 471.257812 637.796875 470.265625 637.5 C 469.277344 637.203125 468.300781 636.859375 467.34375 636.46875 C 466.386719 636.074219 465.453125 635.636719 464.539062 635.152344 C 463.625 634.667969 462.734375 634.140625 461.875 633.566406 C 461.011719 632.996094 460.179688 632.382812 459.378906 631.730469 C 458.578125 631.074219 457.808594 630.382812 457.078125 629.65625 C 456.34375 628.925781 455.648438 628.160156 454.988281 627.363281 C 454.332031 626.566406 453.714844 625.738281 453.140625 624.878906 C 452.5625 624.019531 452.03125 623.132812 451.539062 622.222656 C 451.050781 621.3125 450.609375 620.378906 450.210938 619.421875 C 449.8125 618.46875 449.464844 617.496094 449.164062 616.503906 C 448.863281 615.515625 448.609375 614.515625 448.410156 613.5 C 448.207031 612.484375 448.054688 611.464844 447.953125 610.433594 C 447.851562 609.40625 447.800781 608.371094 447.800781 607.339844 L 447.800781 508.707031 C 447.820312 504.53125 447.023438 500.519531 445.410156 496.671875 C 444.511719 494.496094 443.453125 492.398438 442.234375 490.386719 C 441.011719 488.375 439.644531 486.464844 438.132812 484.664062 C 436.621094 482.859375 434.976562 481.179688 433.207031 479.628906 C 431.4375 478.078125 429.558594 476.671875 427.570312 475.410156 C 425.585938 474.144531 423.515625 473.039062 421.359375 472.097656 C 419.203125 471.152344 416.988281 470.375 414.710938 469.769531 C 412.4375 469.164062 410.128906 468.738281 407.789062 468.488281 C 405.449219 468.234375 403.101562 468.164062 400.75 468.273438 C 398.398438 468.382812 396.070312 468.671875 393.761719 469.140625 C 391.453125 469.605469 389.195312 470.246094 386.988281 471.058594 C 384.777344 471.875 382.644531 472.851562 380.585938 473.992188 C 378.527344 475.132812 376.566406 476.425781 374.707031 477.867188 C 372.84375 479.308594 371.105469 480.882812 369.488281 482.59375 C 367.867188 484.300781 366.390625 486.125 365.050781 488.058594 C 363.710938 489.996094 362.527344 492.023438 361.5 494.140625 C 360.472656 496.257812 359.609375 498.441406 358.917969 500.691406 C 357.972656 503.675781 357.511719 506.734375 357.539062 509.863281 L 357.539062 605.542969 C 357.539062 606.570312 357.488281 607.59375 357.386719 608.617188 C 357.285156 609.640625 357.136719 610.65625 356.9375 611.664062 C 356.738281 612.671875 356.488281 613.667969 356.191406 614.648438 C 355.894531 615.632812 355.550781 616.597656 355.15625 617.550781 C 354.765625 618.5 354.328125 619.425781 353.84375 620.332031 C 353.363281 621.238281 352.835938 622.121094 352.265625 622.976562 C 351.695312 623.832031 351.085938 624.65625 350.4375 625.453125 C 349.789062 626.246094 349.101562 627.007812 348.375 627.738281 C 347.652344 628.464844 346.890625 629.15625 346.097656 629.8125 C 345.308594 630.464844 344.484375 631.078125 343.632812 631.652344 C 342.78125 632.226562 341.902344 632.753906 340.996094 633.242188 C 340.09375 633.730469 339.167969 634.171875 338.21875 634.566406 C 337.269531 634.964844 336.304688 635.3125 335.324219 635.617188 C 334.34375 635.917969 333.347656 636.171875 332.339844 636.375 C 331.332031 636.582031 330.320312 636.734375 329.296875 636.839844 C 328.277344 636.945312 327.25 637 326.222656 637.003906 L 249.882812 637.390625 C 248.847656 637.394531 247.8125 637.351562 246.78125 637.253906 C 245.75 637.15625 244.726562 637.007812 243.707031 636.808594 C 242.691406 636.609375 241.6875 636.363281 240.691406 636.066406 C 239.699219 635.769531 238.726562 635.421875 237.765625 635.027344 C 236.808594 634.632812 235.871094 634.195312 234.957031 633.707031 C 234.042969 633.222656 233.152344 632.691406 232.289062 632.117188 C 231.429688 631.542969 230.597656 630.925781 229.792969 630.269531 C 228.992188 629.613281 228.226562 628.921875 227.492188 628.1875 C 226.757812 627.457031 226.0625 626.6875 225.40625 625.886719 C 224.75 625.085938 224.132812 624.257812 223.554688 623.394531 C 222.980469 622.53125 222.449219 621.644531 221.960938 620.730469 C 221.472656 619.816406 221.03125 618.878906 220.636719 617.921875 C 220.242188 616.964844 219.894531 615.988281 219.59375 614.996094 C 219.296875 614.003906 219.046875 613 218.847656 611.984375 C 218.648438 610.96875 218.5 609.941406 218.398438 608.910156 C 218.300781 607.878906 218.253906 606.847656 218.257812 605.808594 C 218.433594 552.472656 218.617188 499.132812 218.804688 445.796875 C 218.8125 443.625 219.042969 441.480469 219.492188 439.355469 C 219.945312 437.234375 220.609375 435.179688 221.484375 433.195312 C 222.359375 431.207031 223.429688 429.332031 224.695312 427.570312 C 225.957031 425.804688 227.390625 424.1875 228.988281 422.71875 L 381.847656 282.265625 C 382.5625 281.605469 383.308594 280.984375 384.082031 280.394531 C 384.855469 279.804688 385.65625 279.253906 386.480469 278.738281 C 387.304688 278.222656 388.152344 277.746094 389.019531 277.3125 C 389.890625 276.875 390.777344 276.480469 391.683594 276.125 C 392.589844 275.769531 393.507812 275.460938 394.441406 275.191406 C 395.378906 274.921875 396.324219 274.695312 397.277344 274.515625 C 398.234375 274.335938 399.195312 274.199219 400.164062 274.105469 C 401.132812 274.015625 402.101562 273.96875 403.074219 273.964844 C 404.046875 273.964844 405.015625 274.007812 405.984375 274.09375 C 406.953125 274.183594 407.917969 274.3125 408.871094 274.492188 C 409.828125 274.667969 410.773438 274.890625 411.710938 275.15625 C 412.648438 275.417969 413.566406 275.726562 414.476562 276.078125 C 415.382812 276.429688 416.269531 276.820312 417.140625 277.253906 C 418.011719 277.683594 418.863281 278.15625 419.6875 278.667969 C 420.515625 279.179688 421.316406 279.730469 422.09375 280.316406 C 422.871094 280.902344 423.617188 281.519531 424.335938 282.175781 C 475.171875 328.539062 526.019531 374.921875 576.886719 421.324219 C 578.503906 422.792969 579.953125 424.414062 581.230469 426.183594 C 582.511719 427.953125 583.59375 429.839844 584.480469 431.835938 C 585.367188 433.832031 586.039062 435.898438 586.492188 438.035156 C 586.949219 440.175781 587.179688 442.335938 587.183594 444.519531 Z M 635.402344 440.410156 L 635.328125 440.410156 C 633.398438 440.410156 631.488281 440.222656 629.597656 439.847656 C 627.707031 439.46875 625.867188 438.914062 624.085938 438.175781 C 622.304688 437.441406 620.609375 436.535156 619.003906 435.464844 C 617.402344 434.394531 615.917969 433.179688 614.550781 431.816406 L 423.683594 240.933594 C 423.003906 240.253906 422.292969 239.605469 421.546875 238.996094 C 420.804688 238.386719 420.03125 237.8125 419.230469 237.277344 C 418.429688 236.742188 417.605469 236.246094 416.757812 235.792969 C 415.910156 235.339844 415.039062 234.929688 414.152344 234.558594 C 413.261719 234.191406 412.359375 233.867188 411.4375 233.585938 C 410.515625 233.308594 409.582031 233.074219 408.640625 232.886719 C 407.695312 232.699219 406.746094 232.558594 405.785156 232.464844 C 404.828125 232.367188 403.867188 232.320312 402.90625 232.320312 C 401.945312 232.320312 400.984375 232.367188 400.027344 232.464844 C 399.066406 232.558594 398.117188 232.699219 397.171875 232.886719 C 396.230469 233.074219 395.296875 233.308594 394.375 233.585938 C 393.453125 233.867188 392.550781 234.191406 391.660156 234.558594 C 390.773438 234.929688 389.902344 235.339844 389.054688 235.792969 C 388.207031 236.246094 387.378906 236.742188 386.582031 237.277344 C 385.78125 237.8125 385.007812 238.386719 384.265625 238.996094 C 383.519531 239.605469 382.808594 240.253906 382.128906 240.933594 L 190.933594 431.832031 C 189.570312 433.191406 188.085938 434.410156 186.480469 435.476562 C 184.875 436.546875 183.183594 437.449219 181.398438 438.1875 C 179.617188 438.921875 177.78125 439.476562 175.886719 439.851562 C 173.996094 440.226562 172.085938 440.410156 170.15625 440.410156 C 144.039062 440.410156 130.917969 408.84375 149.378906 390.335938 L 382.664062 156.164062 C 383.34375 155.476562 384.058594 154.828125 384.800781 154.214844 C 385.546875 153.597656 386.320312 153.023438 387.121094 152.484375 C 387.921875 151.945312 388.75 151.449219 389.601562 150.992188 C 390.449219 150.535156 391.320312 150.121094 392.210938 149.75 C 393.105469 149.378906 394.011719 149.054688 394.9375 148.773438 C 395.859375 148.492188 396.792969 148.257812 397.742188 148.066406 C 398.6875 147.878906 399.640625 147.734375 400.601562 147.640625 C 401.5625 147.546875 402.527344 147.5 403.492188 147.5 C 404.457031 147.5 405.421875 147.546875 406.382812 147.640625 C 407.34375 147.734375 408.296875 147.878906 409.242188 148.066406 C 410.191406 148.257812 411.125 148.492188 412.050781 148.773438 C 412.972656 149.054688 413.878906 149.378906 414.773438 149.75 C 415.664062 150.121094 416.535156 150.535156 417.386719 150.992188 C 418.234375 151.449219 419.0625 151.945312 419.863281 152.484375 C 420.664062 153.023438 421.4375 153.597656 422.183594 154.214844 C 422.929688 154.828125 423.640625 155.476562 424.320312 156.164062 L 513.1875 245.875 L 513.1875 196.796875 C 513.1875 196.070312 513.222656 195.347656 513.292969 194.625 C 513.363281 193.902344 513.46875 193.1875 513.609375 192.476562 C 513.753906 191.761719 513.929688 191.058594 514.136719 190.367188 C 514.347656 189.671875 514.59375 188.988281 514.871094 188.320312 C 515.148438 187.648438 515.457031 186.992188 515.796875 186.351562 C 516.140625 185.714844 516.511719 185.089844 516.914062 184.488281 C 517.316406 183.882812 517.75 183.300781 518.210938 182.742188 C 518.667969 182.179688 519.15625 181.644531 519.667969 181.128906 C 520.179688 180.617188 520.71875 180.128906 521.277344 179.667969 C 521.839844 179.210938 522.421875 178.777344 523.023438 178.375 C 523.628906 177.972656 524.25 177.597656 524.890625 177.257812 C 525.527344 176.914062 526.183594 176.605469 526.855469 176.328125 C 527.523438 176.046875 528.207031 175.804688 528.902344 175.59375 C 529.59375 175.382812 530.296875 175.207031 531.007812 175.066406 C 531.722656 174.921875 532.4375 174.816406 533.160156 174.746094 C 533.882812 174.675781 534.605469 174.640625 535.332031 174.640625 L 549.917969 174.640625 C 550.644531 174.640625 551.371094 174.675781 552.089844 174.746094 C 552.8125 174.816406 553.53125 174.921875 554.242188 175.0625 C 554.953125 175.203125 555.660156 175.378906 556.351562 175.589844 C 557.046875 175.800781 557.730469 176.042969 558.402344 176.320312 C 559.070312 176.601562 559.726562 176.910156 560.367188 177.25 C 561.007812 177.59375 561.628906 177.964844 562.234375 178.367188 C 562.835938 178.773438 563.417969 179.203125 563.980469 179.664062 C 564.542969 180.125 565.078125 180.613281 565.589844 181.125 C 566.105469 181.636719 566.589844 182.175781 567.050781 182.738281 C 567.511719 183.296875 567.945312 183.878906 568.347656 184.484375 C 568.75 185.085938 569.121094 185.707031 569.464844 186.347656 C 569.808594 186.988281 570.117188 187.644531 570.394531 188.316406 C 570.671875 188.984375 570.914062 189.667969 571.125 190.363281 C 571.335938 191.058594 571.511719 191.761719 571.652344 192.472656 C 571.792969 193.183594 571.902344 193.902344 571.972656 194.625 C 572.042969 195.347656 572.078125 196.070312 572.078125 196.796875 L 572.078125 305.402344 L 656.253906 390.394531 C 674.613281 408.929688 661.476562 440.410156 635.386719 440.410156 Z M 635.402344 440.410156 " fill-opacity="1" fill-rule="nonzero"/></g></svg>