<svg xmlns="http://www.w3.org/2000/svg" xmlns:xlink="http://www.w3.org/1999/xlink" width="1080" zoomAndPan="magnify" viewBox="0 0 810 809.999993" height="1080" preserveAspectRatio="xMidYMid meet" version="1.0"><defs><clipPath id="1e2b901f20"><path d="M 40.726562 92 L 768.976562 92 L 768.976562 200 L 40.726562 200 Z M 40.726562 92 " clip-rule="nonzero"/></clipPath><clipPath id="0114773ddb"><path d="M 40.726562 265 L 768.976562 265 L 768.976562 373 L 40.726562 373 Z M 40.726562 265 " clip-rule="nonzero"/></clipPath><clipPath id="cc2c522f4d"><path d="M 40.726562 438 L 768.976562 438 L 768.976562 545 L 40.726562 545 Z M 40.726562 438 " clip-rule="nonzero"/></clipPath><clipPath id="76f23a8ecd"><path d="M 40.726562 610 L 768.976562 610 L 768.976562 717.292969 L 40.726562 717.292969 Z M 40.726562 610 " clip-rule="nonzero"/></clipPath></defs><g clip-path="url(#1e2b901f20)"><path fill="#9fbb73" d="M 715.972656 199.40625 L 94.023438 199.40625 C 64.59375 199.40625 40.726562 175.542969 40.726562 146.113281 C 40.726562 116.683594 64.59375 92.816406 94.023438 92.816406 L 715.972656 92.816406 C 745.402344 92.816406 769.269531 116.683594 769.269531 146.113281 C 769.269531 175.542969 745.402344 199.40625 715.972656 199.40625 " fill-opacity="1" fill-rule="nonzero"/></g><g clip-path="url(#0114773ddb)"><path fill="#9fbb73" d="M 715.972656 372.035156 L 94.023438 372.035156 C 64.59375 372.035156 40.726562 348.167969 40.726562 318.738281 C 40.726562 289.3125 64.59375 265.445312 94.023438 265.445312 L 715.972656 265.445312 C 745.402344 265.445312 769.269531 289.3125 769.269531 318.738281 C 769.269531 348.167969 745.402344 372.035156 715.972656 372.035156 " fill-opacity="1" fill-rule="nonzero"/></g><g clip-path="url(#cc2c522f4d)"><path fill="#9fbb73" d="M 715.972656 544.664062 L 94.023438 544.664062 C 64.59375 544.664062 40.726562 520.796875 40.726562 491.367188 C 40.726562 461.875 64.59375 438.007812 94.023438 438.007812 L 715.972656 438.007812 C 745.402344 438.007812 769.269531 461.875 769.269531 491.367188 C 769.269531 520.796875 745.402344 544.664062 715.972656 544.664062 " fill-opacity="1" fill-rule="nonzero"/></g><g clip-path="url(#76f23a8ecd)"><path fill="#9fbb73" d="M 715.972656 717.292969 L 94.023438 717.292969 C 64.59375 717.292969 40.726562 693.425781 40.726562 663.929688 C 40.726562 634.503906 64.59375 610.636719 94.023438 610.636719 L 715.972656 610.636719 C 745.402344 610.636719 769.269531 634.503906 769.269531 663.929688 C 769.269531 693.425781 745.402344 717.292969 715.972656 717.292969 " fill-opacity="1" fill-rule="nonzero"/></g></svg>