<svg xmlns="http://www.w3.org/2000/svg" xmlns:xlink="http://www.w3.org/1999/xlink" width="500" zoomAndPan="magnify" viewBox="0 0 375 374.999991" height="500" preserveAspectRatio="xMidYMid meet" version="1.0"><defs><g/><clipPath id="4a6c1277a1"><path d="M 14.296875 14.296875 L 360.796875 14.296875 L 360.796875 360.796875 L 14.296875 360.796875 Z M 14.296875 14.296875 " clip-rule="nonzero"/></clipPath><clipPath id="345d8da12d"><path d="M 67.507812 78.371094 L 303.757812 78.371094 L 303.757812 314.621094 L 67.507812 314.621094 Z M 67.507812 78.371094 " clip-rule="nonzero"/></clipPath><clipPath id="d90c4d92f1"><path d="M 71.214844 78.371094 L 307.464844 78.371094 L 307.464844 314.621094 L 71.214844 314.621094 Z M 71.214844 78.371094 " clip-rule="nonzero"/></clipPath><clipPath id="1524d83da3"><path d="M 14.296875 14.296875 L 360.796875 14.296875 L 360.796875 360.796875 L 14.296875 360.796875 Z M 14.296875 14.296875 " clip-rule="nonzero"/></clipPath><clipPath id="54575e5f99"><path d="M 21.378906 21.175781 L 352 21.175781 L 352 351.925781 L 21.378906 351.925781 Z M 21.378906 21.175781 " clip-rule="nonzero"/></clipPath><clipPath id="7187ad01f4"><path d="M 40.039062 187.5 L 58.054688 187.5 L 58.054688 205.515625 L 40.039062 205.515625 Z M 40.039062 187.5 " clip-rule="nonzero"/></clipPath><clipPath id="f65bc45bd4"><path d="M 49.046875 187.5 C 44.070312 187.5 40.039062 191.53125 40.039062 196.507812 C 40.039062 201.484375 44.070312 205.515625 49.046875 205.515625 C 54.019531 205.515625 58.054688 201.484375 58.054688 196.507812 C 58.054688 191.53125 54.019531 187.5 49.046875 187.5 Z M 49.046875 187.5 " clip-rule="nonzero"/></clipPath><clipPath id="9d304c31ff"><path d="M 317.375 187.5 L 335.390625 187.5 L 335.390625 205.515625 L 317.375 205.515625 Z M 317.375 187.5 " clip-rule="nonzero"/></clipPath><clipPath id="12052b5728"><path d="M 326.382812 187.5 C 321.40625 187.5 317.375 191.53125 317.375 196.507812 C 317.375 201.484375 321.40625 205.515625 326.382812 205.515625 C 331.355469 205.515625 335.390625 201.484375 335.390625 196.507812 C 335.390625 191.53125 331.355469 187.5 326.382812 187.5 Z M 326.382812 187.5 " clip-rule="nonzero"/></clipPath></defs><g clip-path="url(#4a6c1277a1)"><path fill="#ffffff" d="M 360.796875 187.546875 C 360.796875 190.382812 360.726562 193.214844 360.589844 196.046875 C 360.449219 198.878906 360.242188 201.707031 359.960938 204.527344 C 359.683594 207.351562 359.335938 210.164062 358.921875 212.96875 C 358.503906 215.773438 358.019531 218.566406 357.46875 221.347656 C 356.914062 224.128906 356.292969 226.894531 355.605469 229.644531 C 354.914062 232.394531 354.160156 235.125 353.335938 237.839844 C 352.511719 240.550781 351.625 243.242188 350.667969 245.914062 C 349.714844 248.582031 348.695312 251.226562 347.609375 253.847656 C 346.523438 256.464844 345.375 259.058594 344.164062 261.621094 C 342.949219 264.183594 341.675781 266.714844 340.339844 269.214844 C 339.003906 271.71875 337.605469 274.183594 336.148438 276.613281 C 334.691406 279.046875 333.175781 281.441406 331.597656 283.800781 C 330.023438 286.15625 328.390625 288.472656 326.703125 290.75 C 325.011719 293.027344 323.269531 295.261719 321.472656 297.457031 C 319.671875 299.648438 317.820312 301.792969 315.917969 303.894531 C 314.011719 305.996094 312.058594 308.046875 310.054688 310.054688 C 308.046875 312.058594 305.996094 314.011719 303.894531 315.917969 C 301.792969 317.820312 299.648438 319.671875 297.457031 321.472656 C 295.261719 323.269531 293.027344 325.011719 290.75 326.703125 C 288.472656 328.390625 286.15625 330.023438 283.800781 331.597656 C 281.441406 333.175781 279.046875 334.691406 276.613281 336.148438 C 274.183594 337.605469 271.71875 339.003906 269.214844 340.339844 C 266.714844 341.675781 264.183594 342.949219 261.621094 344.164062 C 259.058594 345.375 256.464844 346.523438 253.847656 347.609375 C 251.226562 348.695312 248.582031 349.714844 245.914062 350.667969 C 243.242188 351.625 240.550781 352.511719 237.839844 353.335938 C 235.125 354.160156 232.394531 354.914062 229.644531 355.605469 C 226.894531 356.292969 224.128906 356.914062 221.347656 357.46875 C 218.566406 358.019531 215.773438 358.503906 212.96875 358.921875 C 210.164062 359.335938 207.351562 359.683594 204.527344 359.960938 C 201.707031 360.242188 198.878906 360.449219 196.046875 360.589844 C 193.214844 360.726562 190.382812 360.796875 187.546875 360.796875 C 184.710938 360.796875 181.878906 360.726562 179.046875 360.589844 C 176.214844 360.449219 173.386719 360.242188 170.566406 359.960938 C 167.742188 359.683594 164.929688 359.335938 162.125 358.921875 C 159.320312 358.503906 156.527344 358.019531 153.746094 357.46875 C 150.964844 356.914062 148.199219 356.292969 145.449219 355.605469 C 142.699219 354.914062 139.96875 354.160156 137.253906 353.335938 C 134.542969 352.511719 131.851562 351.625 129.179688 350.667969 C 126.511719 349.714844 123.867188 348.695312 121.246094 347.609375 C 118.628906 346.523438 116.035156 345.375 113.472656 344.164062 C 110.910156 342.949219 108.378906 341.675781 105.878906 340.339844 C 103.375 339.003906 100.910156 337.605469 98.476562 336.148438 C 96.046875 334.691406 93.652344 333.175781 91.292969 331.597656 C 88.9375 330.023438 86.621094 328.390625 84.34375 326.703125 C 82.066406 325.011719 79.828125 323.269531 77.636719 321.472656 C 75.445312 319.671875 73.300781 317.820312 71.199219 315.917969 C 69.097656 314.011719 67.046875 312.058594 65.039062 310.054688 C 63.035156 308.046875 61.082031 305.996094 59.175781 303.894531 C 57.273438 301.792969 55.421875 299.648438 53.621094 297.457031 C 51.824219 295.261719 50.082031 293.027344 48.390625 290.75 C 46.703125 288.472656 45.070312 286.15625 43.496094 283.800781 C 41.917969 281.441406 40.402344 279.046875 38.945312 276.613281 C 37.488281 274.183594 36.089844 271.71875 34.753906 269.214844 C 33.417969 266.714844 32.144531 264.183594 30.929688 261.621094 C 29.71875 259.058594 28.570312 256.464844 27.484375 253.847656 C 26.398438 251.226562 25.378906 248.582031 24.425781 245.914062 C 23.46875 243.242188 22.578125 240.550781 21.757812 237.839844 C 20.933594 235.125 20.179688 232.394531 19.488281 229.644531 C 18.800781 226.894531 18.179688 224.128906 17.625 221.347656 C 17.074219 218.566406 16.589844 215.773438 16.171875 212.96875 C 15.757812 210.164062 15.410156 207.351562 15.132812 204.527344 C 14.851562 201.707031 14.644531 198.878906 14.503906 196.046875 C 14.367188 193.214844 14.296875 190.382812 14.296875 187.546875 C 14.296875 184.710938 14.367188 181.878906 14.503906 179.046875 C 14.644531 176.214844 14.851562 173.386719 15.132812 170.566406 C 15.410156 167.742188 15.757812 164.929688 16.171875 162.125 C 16.589844 159.320312 17.074219 156.527344 17.625 153.746094 C 18.179688 150.964844 18.800781 148.199219 19.488281 145.449219 C 20.179688 142.699219 20.933594 139.96875 21.757812 137.253906 C 22.578125 134.542969 23.46875 131.851562 24.425781 129.179688 C 25.378906 126.511719 26.398438 123.867188 27.484375 121.246094 C 28.570312 118.628906 29.71875 116.035156 30.929688 113.472656 C 32.144531 110.910156 33.417969 108.378906 34.753906 105.878906 C 36.089844 103.375 37.488281 100.910156 38.945312 98.480469 C 40.402344 96.046875 41.917969 93.652344 43.496094 91.292969 C 45.070312 88.9375 46.703125 86.621094 48.390625 84.34375 C 50.082031 82.066406 51.824219 79.828125 53.621094 77.636719 C 55.421875 75.445312 57.273438 73.300781 59.175781 71.199219 C 61.082031 69.097656 63.035156 67.046875 65.039062 65.039062 C 67.046875 63.035156 69.097656 61.082031 71.199219 59.175781 C 73.300781 57.273438 75.445312 55.421875 77.636719 53.621094 C 79.828125 51.824219 82.066406 50.082031 84.34375 48.390625 C 86.621094 46.703125 88.9375 45.070312 91.292969 43.496094 C 93.652344 41.917969 96.046875 40.402344 98.476562 38.945312 C 100.910156 37.488281 103.375 36.089844 105.878906 34.753906 C 108.378906 33.417969 110.910156 32.144531 113.472656 30.929688 C 116.035156 29.71875 118.628906 28.570312 121.246094 27.484375 C 123.867188 26.398438 126.511719 25.378906 129.179688 24.425781 C 131.851562 23.46875 134.542969 22.578125 137.253906 21.757812 C 139.96875 20.933594 142.699219 20.179688 145.449219 19.488281 C 148.199219 18.800781 150.964844 18.179688 153.746094 17.625 C 156.527344 17.074219 159.320312 16.589844 162.125 16.171875 C 164.929688 15.757812 167.742188 15.410156 170.566406 15.132812 C 173.386719 14.851562 176.214844 14.644531 179.046875 14.503906 C 181.878906 14.367188 184.710938 14.296875 187.546875 14.296875 C 190.382812 14.296875 193.214844 14.367188 196.046875 14.503906 C 198.878906 14.644531 201.707031 14.851562 204.527344 15.132812 C 207.351562 15.410156 210.164062 15.757812 212.96875 16.171875 C 215.773438 16.589844 218.566406 17.074219 221.347656 17.625 C 224.128906 18.179688 226.894531 18.800781 229.644531 19.488281 C 232.394531 20.179688 235.125 20.933594 237.839844 21.757812 C 240.550781 22.578125 243.242188 23.46875 245.914062 24.425781 C 248.582031 25.378906 251.226562 26.398438 253.847656 27.484375 C 256.464844 28.570312 259.058594 29.71875 261.621094 30.929688 C 264.183594 32.144531 266.714844 33.417969 269.214844 34.753906 C 271.71875 36.089844 274.183594 37.488281 276.613281 38.945312 C 279.046875 40.402344 281.441406 41.917969 283.800781 43.496094 C 286.15625 45.070312 288.472656 46.703125 290.75 48.390625 C 293.027344 50.082031 295.261719 51.824219 297.457031 53.621094 C 299.648438 55.421875 301.792969 57.273438 303.894531 59.175781 C 305.996094 61.082031 308.046875 63.035156 310.054688 65.039062 C 312.058594 67.046875 314.011719 69.097656 315.917969 71.199219 C 317.820312 73.300781 319.671875 75.445312 321.472656 77.636719 C 323.269531 79.828125 325.011719 82.066406 326.703125 84.34375 C 328.390625 86.621094 330.023438 88.9375 331.597656 91.292969 C 333.175781 93.652344 334.691406 96.046875 336.148438 98.476562 C 337.605469 100.910156 339.003906 103.375 340.339844 105.878906 C 341.675781 108.378906 342.949219 110.910156 344.164062 113.472656 C 345.375 116.035156 346.523438 118.628906 347.609375 121.246094 C 348.695312 123.867188 349.714844 126.511719 350.667969 129.179688 C 351.625 131.851562 352.511719 134.542969 353.335938 137.253906 C 354.160156 139.96875 354.914062 142.699219 355.605469 145.449219 C 356.292969 148.199219 356.914062 150.964844 357.46875 153.746094 C 358.019531 156.527344 358.503906 159.320312 358.921875 162.125 C 359.335938 164.929688 359.683594 167.742188 359.960938 170.566406 C 360.242188 173.386719 360.449219 176.214844 360.589844 179.046875 C 360.726562 181.878906 360.796875 184.710938 360.796875 187.546875 Z M 360.796875 187.546875 " fill-opacity="1" fill-rule="nonzero"/></g><g clip-path="url(#345d8da12d)"><path fill="#b98737" d="M 185.683594 78.328125 C 250.933594 78.328125 303.820312 131.222656 303.820312 196.464844 C 303.820312 246.261719 273.011719 288.855469 229.410156 306.242188 L 227.6875 269.015625 L 227.6875 268.945312 C 227.78125 261.582031 230.890625 255.785156 237.789062 252.863281 L 238.675781 252.507812 L 238.722656 252.492188 L 238.777344 252.46875 L 238.863281 252.4375 C 243.941406 250.382812 248.078125 247.613281 250.894531 242.820312 C 254.414062 236.847656 255.09375 228.890625 255.09375 222.117188 C 255.09375 209.097656 251.257812 193.730469 244.644531 182.472656 C 239.949219 174.476562 232.535156 166.382812 222.53125 166.382812 C 212.523438 166.382812 205.113281 174.476562 200.414062 182.472656 C 193.800781 193.730469 189.964844 209.097656 189.964844 222.117188 C 189.964844 228.898438 190.644531 236.855469 194.164062 242.820312 C 197.011719 247.644531 201.195312 250.421875 206.296875 252.476562 C 206.441406 252.53125 206.582031 252.597656 206.726562 252.652344 L 206.765625 252.652344 L 207.207031 252.839844 C 214.128906 255.753906 217.277344 261.488281 217.371094 268.945312 L 217.371094 269.015625 L 215.433594 310.828125 C 205.925781 313.296875 195.960938 314.609375 185.683594 314.609375 C 175.046875 314.609375 164.738281 313.195312 154.929688 310.5625 L 153.117188 271.414062 L 153.117188 271.328125 C 153.214844 263.78125 156.433594 257.832031 163.496094 254.84375 L 164.398438 254.488281 L 164.429688 254.480469 L 164.460938 254.464844 L 164.566406 254.421875 C 169.546875 252.40625 173.613281 249.691406 176.382812 244.988281 C 179.855469 239.09375 180.519531 231.191406 180.519531 224.507812 C 180.519531 223.859375 180.496094 223.210938 180.457031 222.5625 C 180.433594 222.191406 180.402344 221.816406 180.351562 221.453125 L 180.289062 220.910156 L 180.394531 220.535156 L 176.097656 170.570312 L 171.605469 170.578125 L 171.21875 223.382812 L 163.734375 224.128906 L 159.289062 164.4375 L 154.417969 164.730469 L 153.449219 224.863281 L 150.800781 224.972656 C 150.246094 224.996094 149.695312 225.007812 149.148438 225.007812 C 148.59375 225.007812 148.03125 224.996094 147.480469 224.972656 L 144.84375 224.863281 L 143.492188 164.730469 L 138.621094 164.445312 L 134.5625 224.136719 L 127.070312 223.390625 L 126.691406 170.578125 L 122.175781 170.578125 L 116.367188 220.558594 L 116.464844 220.917969 L 116.398438 221.445312 C 116.359375 221.816406 116.328125 222.191406 116.304688 222.5625 C 116.265625 223.210938 116.242188 223.859375 116.242188 224.507812 C 116.242188 231.191406 116.90625 239.09375 120.378906 244.988281 C 123.171875 249.734375 127.285156 252.445312 132.300781 254.464844 C 132.417969 254.511719 132.535156 254.558594 132.648438 254.605469 L 132.6875 254.605469 L 133.210938 254.828125 C 140.289062 257.808594 143.539062 263.695312 143.640625 271.328125 L 143.640625 271.414062 L 142.027344 306.296875 C 98.375 288.941406 67.515625 246.316406 67.515625 196.472656 C 67.546875 131.214844 120.433594 78.328125 185.683594 78.328125 " fill-opacity="1" fill-rule="evenodd"/></g><g clip-path="url(#d90c4d92f1)"><path fill="#ffbd59" d="M 189.390625 78.328125 C 254.640625 78.328125 307.527344 131.222656 307.527344 196.464844 C 307.527344 246.261719 276.71875 288.855469 233.117188 306.242188 L 231.394531 269.015625 L 231.394531 268.945312 C 231.488281 261.582031 234.597656 255.785156 241.492188 252.863281 L 242.378906 252.507812 L 242.425781 252.492188 L 242.484375 252.46875 L 242.570312 252.4375 C 247.648438 250.382812 251.785156 247.613281 254.601562 242.820312 C 258.121094 236.847656 258.800781 228.890625 258.800781 222.117188 C 258.800781 209.097656 254.964844 193.730469 248.351562 182.472656 C 243.652344 174.476562 236.242188 166.382812 226.234375 166.382812 C 216.230469 166.382812 208.816406 174.476562 204.117188 182.472656 C 197.507812 193.730469 193.667969 209.097656 193.667969 222.117188 C 193.667969 228.898438 194.351562 236.855469 197.871094 242.820312 C 200.71875 247.644531 204.902344 250.421875 210.003906 252.476562 C 210.148438 252.53125 210.289062 252.597656 210.429688 252.652344 L 210.472656 252.652344 L 210.914062 252.839844 C 217.835938 255.753906 220.984375 261.488281 221.078125 268.945312 L 221.078125 269.015625 L 219.140625 310.828125 C 209.632812 313.296875 199.664062 314.609375 189.390625 314.609375 C 178.75 314.609375 168.445312 313.195312 158.636719 310.5625 L 156.824219 271.414062 L 156.824219 271.328125 C 156.917969 263.78125 160.140625 257.832031 167.203125 254.84375 L 168.105469 254.488281 L 168.136719 254.480469 L 168.167969 254.464844 L 168.269531 254.421875 C 173.253906 252.40625 177.320312 249.691406 180.089844 244.988281 C 183.5625 239.09375 184.226562 231.191406 184.226562 224.507812 C 184.226562 223.859375 184.203125 223.210938 184.160156 222.5625 C 184.136719 222.191406 184.105469 221.816406 184.058594 221.453125 L 183.996094 220.910156 L 184.097656 220.535156 L 179.804688 170.570312 L 175.3125 170.578125 L 174.921875 223.382812 L 167.441406 224.128906 L 162.996094 164.4375 L 158.121094 164.730469 L 157.15625 224.863281 L 154.507812 224.972656 C 153.953125 224.996094 153.398438 225.007812 152.855469 225.007812 C 152.300781 225.007812 151.738281 224.996094 151.183594 224.972656 L 148.550781 224.863281 L 147.199219 164.730469 L 142.324219 164.445312 L 138.269531 224.136719 L 130.777344 223.390625 L 130.398438 170.578125 L 125.878906 170.578125 L 120.074219 220.558594 L 120.167969 220.917969 L 120.105469 221.445312 C 120.066406 221.816406 120.035156 222.191406 120.011719 222.5625 C 119.972656 223.210938 119.949219 223.859375 119.949219 224.507812 C 119.949219 231.191406 120.613281 239.09375 124.085938 244.988281 C 126.878906 249.734375 130.992188 252.445312 136.003906 254.464844 C 136.125 254.511719 136.242188 254.558594 136.355469 254.605469 L 136.394531 254.605469 L 136.914062 254.828125 C 143.996094 257.808594 147.246094 263.695312 147.347656 271.328125 L 147.347656 271.414062 L 145.734375 306.296875 C 102.078125 288.941406 71.222656 246.316406 71.222656 196.472656 C 71.253906 131.214844 124.140625 78.328125 189.390625 78.328125 " fill-opacity="1" fill-rule="evenodd"/></g><g clip-path="url(#1524d83da3)"><path fill="#000000" d="M 187.546875 360.796875 C 92.046875 360.796875 14.296875 283.046875 14.296875 187.546875 C 14.296875 92.046875 92.046875 14.296875 187.546875 14.296875 C 283.046875 14.296875 360.796875 92.046875 360.796875 187.546875 C 360.796875 283.046875 283.046875 360.796875 187.546875 360.796875 Z M 187.546875 16.855469 C 93.410156 16.855469 16.855469 93.410156 16.855469 187.546875 C 16.855469 281.683594 93.410156 358.238281 187.546875 358.238281 C 281.683594 358.238281 358.238281 281.683594 358.238281 187.546875 C 358.238281 93.410156 281.683594 16.855469 187.546875 16.855469 Z M 187.546875 16.855469 " fill-opacity="1" fill-rule="nonzero"/></g><g clip-path="url(#54575e5f99)"><path fill="#040302" d="M 186.671875 351.761719 C 95.351562 351.761719 21.378906 277.277344 21.378906 186.46875 C 21.378906 95.660156 95.351562 21.175781 186.671875 21.175781 C 277.992188 21.175781 351.964844 95.152344 351.964844 186.46875 C 351.964844 277.789062 277.480469 351.761719 186.671875 351.761719 Z M 186.671875 31.378906 C 100.964844 31.378906 31.582031 100.761719 31.582031 186.46875 C 31.582031 272.175781 100.964844 341.558594 186.671875 341.558594 C 272.378906 341.558594 341.761719 272.175781 341.761719 186.46875 C 341.761719 100.761719 271.871094 31.378906 186.671875 31.378906 Z M 186.671875 31.378906 " fill-opacity="1" fill-rule="nonzero"/></g><g clip-path="url(#7187ad01f4)"><g clip-path="url(#f65bc45bd4)"><path fill="#000000" d="M 40.039062 187.5 L 58.054688 187.5 L 58.054688 205.515625 L 40.039062 205.515625 Z M 40.039062 187.5 " fill-opacity="1" fill-rule="nonzero"/></g></g><g clip-path="url(#9d304c31ff)"><g clip-path="url(#12052b5728)"><path fill="#000000" d="M 317.375 187.5 L 335.390625 187.5 L 335.390625 205.515625 L 317.375 205.515625 Z M 317.375 187.5 " fill-opacity="1" fill-rule="nonzero"/></g></g><g fill="#000000" fill-opacity="1"><g transform="translate(153.933875, 72.565266)"><g><path d="M 27.699219 -8.398438 C 27.347656 -9.71875 25.375 -17.574219 25.019531 -18.925781 C 24.441406 -21.300781 26.460938 -21.671875 26.023438 -22.921875 C 25.628906 -24.078125 21.027344 -23.550781 20.117188 -23.4375 C 19.273438 -23.335938 17.003906 -22.960938 16.738281 -22.011719 L 16.707031 -22.007812 L 14.53125 -11.234375 L 9.441406 -21.214844 C 8.871094 -21.96875 6.519531 -21.746094 5.703125 -21.648438 C 4.796875 -21.535156 0.425781 -20.9375 0.214844 -19.800781 C 0.0195312 -18.539062 2.367188 -18.574219 2.371094 -16.191406 L 2.316406 -5.203125 C 2.316406 -2.855469 0.273438 -2.445312 0.484375 -1.234375 C 0.679688 -0.148438 3.136719 -0.320312 4.042969 -0.429688 C 4.949219 -0.539062 7.515625 -0.855469 7.621094 -2.042969 C 7.746094 -3.359375 5.050781 -3.09375 5.070312 -5.539062 C 5.074219 -6.523438 5.074219 -11.222656 5.089844 -14.207031 L 10.5625 -3.449219 C 10.941406 -2.667969 11.789062 -2.234375 12.664062 -2.339844 L 13.980469 -2.5 C 14.886719 -2.613281 15.597656 -3.269531 15.777344 -4.148438 L 18.144531 -16.214844 L 20.351562 -7.5 C 20.917969 -5.1875 18.792969 -4.675781 19.320312 -3.46875 C 19.765625 -2.414062 24.375 -2.882812 25.28125 -2.992188 C 26.1875 -3.101562 30.78125 -3.695312 30.609375 -4.847656 C 30.390625 -6.125 28.3125 -5.996094 27.699219 -8.398438 Z M 27.699219 -8.398438 "/></g></g></g><g fill="#000000" fill-opacity="1"><g transform="translate(189.63304, 68.734423)"><g><path d="M 28.90625 -1.484375 C 28.882812 -2.851562 28.859375 -10.949219 28.839844 -12.347656 C 28.851562 -14.792969 30.898438 -14.667969 30.773438 -15.984375 C 30.667969 -17.203125 26.074219 -17.796875 25.167969 -17.90625 C 24.324219 -18.011719 22.03125 -18.195312 21.542969 -17.335938 L 21.511719 -17.339844 L 16.808594 -7.40625 L 14.265625 -18.320312 C 13.898438 -19.1875 11.558594 -19.539062 10.746094 -19.636719 C 9.839844 -19.75 5.453125 -20.21875 4.976562 -19.167969 C 4.484375 -17.988281 6.765625 -17.457031 6.199219 -15.144531 L 3.5 -4.492188 C 2.9375 -2.210938 0.851562 -2.308594 0.765625 -1.082031 C 0.695312 0.0195312 3.121094 0.445312 4.027344 0.554688 C 4.933594 0.667969 7.5 0.980469 7.890625 -0.148438 C 8.328125 -1.394531 5.644531 -1.785156 6.253906 -4.15625 C 6.496094 -5.109375 7.625 -9.671875 8.359375 -12.566406 L 11.082031 -0.804688 C 11.261719 0.0429688 11.980469 0.667969 12.855469 0.777344 L 14.167969 0.9375 C 15.078125 1.046875 15.925781 0.582031 16.3125 -0.230469 L 21.511719 -11.371094 L 21.558594 -2.382812 C 21.554688 -0.00390625 19.363281 -0.015625 19.585938 1.28125 C 19.765625 2.414062 24.351562 3.070312 25.257812 3.179688 C 26.167969 3.289062 30.769531 3.820312 30.878906 2.660156 C 30.972656 1.371094 28.921875 0.992188 28.90625 -1.484375 Z M 28.90625 -1.484375 "/></g></g></g></svg>