<svg xmlns="http://www.w3.org/2000/svg" xmlns:xlink="http://www.w3.org/1999/xlink" width="1080" zoomAndPan="magnify" viewBox="0 0 810 809.999993" height="1080" preserveAspectRatio="xMidYMid meet" version="1.0"><defs><clipPath id="32fc89491b"><path d="M 43.523438 43.523438 L 766.523438 43.523438 L 766.523438 766.523438 L 43.523438 766.523438 Z M 43.523438 43.523438 " clip-rule="nonzero"/></clipPath></defs><g clip-path="url(#32fc89491b)"><path fill="#9fbb73" d="M 405 766.476562 C 604.636719 766.476562 766.476562 604.636719 766.476562 405 C 766.476562 205.359375 604.636719 43.523438 405 43.523438 C 205.359375 43.523438 43.523438 205.359375 43.523438 405 C 43.523438 604.636719 205.359375 766.476562 405 766.476562 Z M 337.800781 467.296875 C 328.699219 476.371094 313.972656 476.371094 304.871094 467.296875 L 241.855469 404.476562 C 234.1875 396.832031 224.425781 393.011719 212.574219 393.011719 C 200.722656 393.011719 190.960938 396.832031 183.292969 404.476562 C 175.621094 412.125 171.789062 421.851562 171.789062 433.667969 C 171.789062 445.484375 175.621094 455.214844 183.292969 462.859375 L 292.054688 571.285156 C 300.417969 579.625 310.179688 583.792969 321.335938 583.792969 C 332.492188 583.792969 342.25 579.625 350.617188 571.285156 L 626.707031 296.054688 C 634.375 288.410156 638.210938 278.679688 638.210938 266.863281 C 638.210938 255.046875 634.375 245.316406 626.707031 237.671875 C 619.035156 230.027344 609.277344 226.203125 597.421875 226.203125 C 585.570312 226.203125 575.808594 230.027344 568.140625 237.671875 Z M 337.800781 467.296875 " fill-opacity="1" fill-rule="evenodd"/></g></svg>