<svg xmlns="http://www.w3.org/2000/svg" xmlns:xlink="http://www.w3.org/1999/xlink" width="1080" zoomAndPan="magnify" viewBox="0 0 810 809.999993" height="1080" preserveAspectRatio="xMidYMid meet" version="1.0"><defs><clipPath id="01bd2b2774"><path d="M 44.195312 44.195312 L 765.695312 44.195312 L 765.695312 765.695312 L 44.195312 765.695312 Z M 44.195312 44.195312 " clip-rule="nonzero"/></clipPath></defs><path fill="#9fbb73" d="M 511.492188 382.667969 C 511.492188 384.773438 511.441406 386.882812 511.335938 388.988281 C 511.234375 391.09375 511.078125 393.195312 510.871094 395.292969 C 510.664062 397.390625 510.40625 399.484375 510.097656 401.570312 C 509.789062 403.65625 509.429688 405.730469 509.015625 407.800781 C 508.605469 409.867188 508.144531 411.921875 507.632812 413.96875 C 507.121094 416.015625 506.558594 418.046875 505.945312 420.0625 C 505.332031 422.082031 504.671875 424.082031 503.960938 426.066406 C 503.25 428.050781 502.492188 430.019531 501.6875 431.964844 C 500.878906 433.914062 500.027344 435.839844 499.125 437.746094 C 498.222656 439.652344 497.273438 441.535156 496.28125 443.394531 C 495.289062 445.253906 494.25 447.089844 493.164062 448.894531 C 492.082031 450.703125 490.953125 452.484375 489.78125 454.238281 C 488.609375 455.992188 487.398438 457.714844 486.140625 459.40625 C 484.882812 461.101562 483.589844 462.761719 482.25 464.394531 C 480.914062 466.023438 479.535156 467.617188 478.121094 469.179688 C 476.703125 470.742188 475.25 472.269531 473.761719 473.761719 C 472.269531 475.25 470.742188 476.703125 469.179688 478.121094 C 467.617188 479.535156 466.023438 480.914062 464.394531 482.25 C 462.761719 483.589844 461.101562 484.882812 459.40625 486.140625 C 457.714844 487.398438 455.992188 488.609375 454.238281 489.78125 C 452.484375 490.953125 450.703125 492.082031 448.894531 493.164062 C 447.089844 494.25 445.253906 495.289062 443.394531 496.28125 C 441.535156 497.273438 439.652344 498.222656 437.746094 499.125 C 435.839844 500.027344 433.914062 500.878906 431.964844 501.6875 C 430.019531 502.492188 428.050781 503.25 426.066406 503.960938 C 424.082031 504.671875 422.082031 505.332031 420.0625 505.945312 C 418.046875 506.558594 416.015625 507.121094 413.96875 507.632812 C 411.921875 508.144531 409.867188 508.605469 407.800781 509.015625 C 405.730469 509.429688 403.65625 509.789062 401.570312 510.097656 C 399.484375 510.40625 397.390625 510.664062 395.292969 510.871094 C 393.195312 511.078125 391.09375 511.234375 388.988281 511.335938 C 386.882812 511.441406 384.773438 511.492188 382.667969 511.492188 C 380.558594 511.492188 378.449219 511.441406 376.34375 511.335938 C 374.238281 511.234375 372.136719 511.078125 370.039062 510.871094 C 367.941406 510.664062 365.847656 510.40625 363.765625 510.097656 C 361.679688 509.789062 359.601562 509.429688 357.535156 509.015625 C 355.464844 508.605469 353.410156 508.144531 351.363281 507.632812 C 349.320312 507.121094 347.289062 506.558594 345.269531 505.945312 C 343.253906 505.332031 341.25 504.671875 339.265625 503.960938 C 337.28125 503.25 335.316406 502.492188 333.367188 501.6875 C 331.417969 500.878906 329.492188 500.027344 327.585938 499.125 C 325.679688 498.222656 323.796875 497.273438 321.9375 496.28125 C 320.078125 495.289062 318.246094 494.25 316.4375 493.164062 C 314.628906 492.082031 312.847656 490.953125 311.09375 489.78125 C 309.339844 488.609375 307.617188 487.398438 305.925781 486.140625 C 304.230469 484.882812 302.570312 483.589844 300.941406 482.25 C 299.308594 480.914062 297.714844 479.535156 296.152344 478.121094 C 294.589844 476.703125 293.0625 475.25 291.574219 473.761719 C 290.082031 472.269531 288.628906 470.742188 287.210938 469.179688 C 285.796875 467.617188 284.417969 466.023438 283.082031 464.394531 C 281.746094 462.761719 280.449219 461.101562 279.191406 459.40625 C 277.9375 457.714844 276.722656 455.992188 275.550781 454.238281 C 274.378906 452.484375 273.253906 450.703125 272.167969 448.894531 C 271.085938 447.089844 270.046875 445.253906 269.050781 443.394531 C 268.058594 441.535156 267.109375 439.652344 266.207031 437.746094 C 265.308594 435.839844 264.453125 433.914062 263.644531 431.964844 C 262.839844 430.019531 262.082031 428.050781 261.371094 426.066406 C 260.660156 424.082031 260 422.082031 259.386719 420.0625 C 258.773438 418.046875 258.214844 416.015625 257.699219 413.96875 C 257.1875 411.921875 256.726562 409.867188 256.316406 407.800781 C 255.902344 405.730469 255.542969 403.65625 255.234375 401.570312 C 254.925781 399.484375 254.667969 397.390625 254.460938 395.292969 C 254.253906 393.195312 254.097656 391.09375 253.996094 388.988281 C 253.890625 386.882812 253.839844 384.773438 253.839844 382.667969 C 253.839844 380.558594 253.890625 378.449219 253.996094 376.34375 C 254.097656 374.238281 254.253906 372.136719 254.460938 370.039062 C 254.667969 367.941406 254.925781 365.847656 255.234375 363.765625 C 255.542969 361.679688 255.902344 359.601562 256.316406 357.535156 C 256.726562 355.464844 257.1875 353.410156 257.699219 351.363281 C 258.214844 349.320312 258.773438 347.289062 259.386719 345.269531 C 260 343.253906 260.660156 341.25 261.371094 339.265625 C 262.082031 337.28125 262.839844 335.316406 263.644531 333.367188 C 264.453125 331.417969 265.308594 329.492188 266.207031 327.585938 C 267.109375 325.679688 268.058594 323.796875 269.050781 321.9375 C 270.046875 320.078125 271.085938 318.246094 272.167969 316.4375 C 273.253906 314.628906 274.378906 312.847656 275.550781 311.09375 C 276.722656 309.339844 277.9375 307.617188 279.191406 305.925781 C 280.449219 304.230469 281.746094 302.570312 283.082031 300.941406 C 284.417969 299.308594 285.796875 297.714844 287.210938 296.152344 C 288.628906 294.589844 290.082031 293.0625 291.574219 291.574219 C 293.0625 290.082031 294.589844 288.628906 296.152344 287.210938 C 297.714844 285.796875 299.308594 284.417969 300.941406 283.082031 C 302.570312 281.746094 304.230469 280.449219 305.925781 279.191406 C 307.617188 277.9375 309.339844 276.722656 311.09375 275.550781 C 312.847656 274.378906 314.628906 273.253906 316.4375 272.167969 C 318.246094 271.085938 320.078125 270.046875 321.9375 269.050781 C 323.796875 268.058594 325.679688 267.109375 327.585938 266.207031 C 329.492188 265.308594 331.417969 264.453125 333.367188 263.644531 C 335.316406 262.839844 337.28125 262.082031 339.265625 261.371094 C 341.25 260.660156 343.253906 260 345.269531 259.386719 C 347.289062 258.773438 349.320312 258.214844 351.363281 257.699219 C 353.410156 257.1875 355.464844 256.726562 357.535156 256.316406 C 359.601562 255.902344 361.679688 255.542969 363.765625 255.234375 C 365.847656 254.925781 367.941406 254.667969 370.039062 254.460938 C 372.136719 254.253906 374.238281 254.097656 376.34375 253.996094 C 378.449219 253.890625 380.558594 253.839844 382.667969 253.839844 C 384.773438 253.839844 386.882812 253.890625 388.988281 253.996094 C 391.09375 254.097656 393.195312 254.253906 395.292969 254.460938 C 397.390625 254.667969 399.484375 254.925781 401.570312 255.234375 C 403.65625 255.542969 405.730469 255.902344 407.800781 256.316406 C 409.867188 256.726562 411.921875 257.1875 413.96875 257.699219 C 416.015625 258.214844 418.046875 258.773438 420.0625 259.386719 C 422.082031 260 424.082031 260.660156 426.066406 261.371094 C 428.050781 262.082031 430.019531 262.839844 431.964844 263.644531 C 433.914062 264.453125 435.839844 265.308594 437.746094 266.207031 C 439.652344 267.109375 441.535156 268.058594 443.394531 269.050781 C 445.253906 270.046875 447.089844 271.085938 448.894531 272.167969 C 450.703125 273.253906 452.484375 274.378906 454.238281 275.550781 C 455.992188 276.722656 457.714844 277.9375 459.40625 279.191406 C 461.101562 280.449219 462.761719 281.746094 464.394531 283.082031 C 466.023438 284.417969 467.617188 285.796875 469.179688 287.210938 C 470.742188 288.628906 472.269531 290.082031 473.761719 291.574219 C 475.25 293.0625 476.703125 294.589844 478.121094 296.152344 C 479.535156 297.714844 480.914062 299.308594 482.25 300.941406 C 483.589844 302.570312 484.882812 304.230469 486.140625 305.925781 C 487.398438 307.617188 488.609375 309.339844 489.78125 311.09375 C 490.953125 312.847656 492.082031 314.628906 493.164062 316.4375 C 494.25 318.246094 495.289062 320.078125 496.28125 321.9375 C 497.273438 323.796875 498.222656 325.679688 499.125 327.585938 C 500.027344 329.492188 500.878906 331.417969 501.6875 333.367188 C 502.492188 335.316406 503.25 337.28125 503.960938 339.265625 C 504.671875 341.25 505.332031 343.253906 505.945312 345.269531 C 506.558594 347.289062 507.121094 349.320312 507.632812 351.363281 C 508.144531 353.410156 508.605469 355.464844 509.015625 357.535156 C 509.429688 359.601562 509.789062 361.679688 510.097656 363.765625 C 510.40625 365.847656 510.664062 367.941406 510.871094 370.039062 C 511.078125 372.136719 511.234375 374.238281 511.335938 376.34375 C 511.441406 378.449219 511.492188 380.558594 511.492188 382.667969 Z M 511.492188 382.667969 " fill-opacity="1" fill-rule="nonzero"/><g clip-path="url(#01bd2b2774)"><path fill="#9fbb73" d="M 404.996094 44.195312 C 205.730469 44.195312 44.195312 205.730469 44.195312 404.996094 C 44.195312 604.261719 205.730469 765.800781 404.996094 765.800781 C 604.261719 765.800781 765.800781 604.261719 765.800781 404.996094 C 765.800781 205.730469 604.261719 44.195312 404.996094 44.195312 Z M 614.800781 614.800781 C 601.382812 628.214844 579.632812 628.214844 566.214844 614.800781 L 495.929688 544.511719 C 463.9375 566.941406 424.996094 580.136719 382.972656 580.199219 C 275.355469 580.363281 186.898438 493.53125 185.160156 385.933594 C 183.355469 274.25 274.253906 183.355469 385.933594 185.15625 C 493.53125 186.894531 580.363281 275.355469 580.199219 382.96875 C 580.136719 424.992188 566.941406 463.933594 544.511719 495.925781 L 614.800781 566.214844 C 628.214844 579.632812 628.214844 601.382812 614.800781 614.800781 Z M 614.800781 614.800781 " fill-opacity="1" fill-rule="nonzero"/></g></svg>