<svg xmlns="http://www.w3.org/2000/svg" xmlns:xlink="http://www.w3.org/1999/xlink" width="1080" zoomAndPan="magnify" viewBox="0 0 810 809.999993" height="1080" preserveAspectRatio="xMidYMid meet" version="1.0"><defs><clipPath id="136e0f8bb9"><path d="M 427.164062 450 L 751.164062 450 L 751.164062 498 L 427.164062 498 Z M 427.164062 450 " clip-rule="nonzero"/></clipPath><clipPath id="eb5460aa64"><path d="M 427.164062 527 L 751.164062 527 L 751.164062 575 L 427.164062 575 Z M 427.164062 527 " clip-rule="nonzero"/></clipPath><clipPath id="0c851562dc"><path d="M 427.164062 603 L 751.164062 603 L 751.164062 652 L 427.164062 652 Z M 427.164062 603 " clip-rule="nonzero"/></clipPath><clipPath id="982b959d27"><path d="M 427.164062 680 L 751.164062 680 L 751.164062 727.953125 L 427.164062 727.953125 Z M 427.164062 680 " clip-rule="nonzero"/></clipPath><clipPath id="aea2372490"><path d="M 52.386719 223 L 202 223 L 202 372.335938 L 52.386719 372.335938 Z M 52.386719 223 " clip-rule="nonzero"/></clipPath><clipPath id="4ca22f34dd"><path d="M 52.386719 48.335938 L 202 48.335938 L 202 198 L 52.386719 198 Z M 52.386719 48.335938 " clip-rule="nonzero"/></clipPath><clipPath id="deea9573fe"><path d="M 227 48.335938 L 376.386719 48.335938 L 376.386719 198 L 227 198 Z M 227 48.335938 " clip-rule="nonzero"/></clipPath><clipPath id="29c79764d3"><path d="M 227 223 L 376.386719 223 L 376.386719 372.335938 L 227 372.335938 Z M 227 223 " clip-rule="nonzero"/></clipPath></defs><g clip-path="url(#136e0f8bb9)"><path fill="#9fbb73" d="M 727.460938 497.636719 L 450.867188 497.636719 C 437.777344 497.636719 427.164062 487.023438 427.164062 473.933594 C 427.164062 460.847656 437.777344 450.234375 450.867188 450.234375 L 727.460938 450.234375 C 740.550781 450.234375 751.164062 460.847656 751.164062 473.933594 C 751.164062 487.023438 740.550781 497.636719 727.460938 497.636719 " fill-opacity="1" fill-rule="nonzero"/></g><g clip-path="url(#eb5460aa64)"><path fill="#9fbb73" d="M 727.460938 574.410156 L 450.867188 574.410156 C 437.777344 574.410156 427.164062 563.792969 427.164062 550.707031 C 427.164062 537.621094 437.777344 527.003906 450.867188 527.003906 L 727.460938 527.003906 C 740.550781 527.003906 751.164062 537.621094 751.164062 550.707031 C 751.164062 563.792969 740.550781 574.410156 727.460938 574.410156 " fill-opacity="1" fill-rule="nonzero"/></g><g clip-path="url(#0c851562dc)"><path fill="#9fbb73" d="M 727.460938 651.179688 L 450.867188 651.179688 C 437.777344 651.179688 427.164062 640.566406 427.164062 627.480469 C 427.164062 614.363281 437.777344 603.75 450.867188 603.75 L 727.460938 603.75 C 740.550781 603.75 751.164062 614.363281 751.164062 627.480469 C 751.164062 640.566406 740.550781 651.179688 727.460938 651.179688 " fill-opacity="1" fill-rule="nonzero"/></g><g clip-path="url(#982b959d27)"><path fill="#9fbb73" d="M 727.460938 727.953125 L 450.867188 727.953125 C 437.777344 727.953125 427.164062 717.339844 427.164062 704.222656 C 427.164062 691.132812 437.777344 680.519531 450.867188 680.519531 L 727.460938 680.519531 C 740.550781 680.519531 751.164062 691.132812 751.164062 704.222656 C 751.164062 717.339844 740.550781 727.953125 727.460938 727.953125 " fill-opacity="1" fill-rule="nonzero"/></g><path stroke-linecap="round" transform="matrix(0.53033, -0.53033, 0.53033, 0.53033, 72.779275, 720.7784)" fill="none" stroke-linejoin="miter" d="M 15.500282 15.498291 L 1206.378642 15.498291 " stroke="#9fbb73" stroke-width="31" stroke-opacity="1" stroke-miterlimit="4"/><g clip-path="url(#aea2372490)"><path fill="#9fbb73" d="M 74.832031 223.4375 L 178.496094 223.4375 C 190.972656 223.4375 201.039062 233.824219 201.039062 246.71875 L 201.039062 349.0625 C 201.039062 361.949219 190.972656 372.339844 178.496094 372.339844 L 74.832031 372.339844 C 62.332031 372.339844 52.269531 361.949219 52.269531 349.0625 L 52.269531 246.71875 C 52.269531 233.824219 62.332031 223.4375 74.832031 223.4375 Z M 74.832031 223.4375 " fill-opacity="1" fill-rule="nonzero"/></g><g clip-path="url(#4ca22f34dd)"><path fill="#9fbb73" d="M 74.832031 48.226562 L 178.496094 48.226562 C 190.972656 48.226562 201.039062 58.613281 201.039062 71.503906 L 201.039062 173.847656 C 201.039062 186.738281 190.972656 197.128906 178.496094 197.128906 L 74.832031 197.128906 C 62.332031 197.128906 52.269531 186.738281 52.269531 173.847656 L 52.269531 71.503906 C 52.269531 58.613281 62.332031 48.226562 74.832031 48.226562 Z M 74.832031 48.226562 " fill-opacity="1" fill-rule="nonzero"/></g><g clip-path="url(#deea9573fe)"><path fill="#9fbb73" d="M 249.851562 48.226562 L 353.511719 48.226562 C 366.011719 48.226562 376.058594 58.613281 376.058594 71.503906 L 376.058594 173.847656 C 376.058594 186.738281 366.011719 197.128906 353.511719 197.128906 L 249.851562 197.128906 C 237.351562 197.128906 227.308594 186.738281 227.308594 173.847656 L 227.308594 71.503906 C 227.3125 58.613281 237.351562 48.226562 249.851562 48.226562 Z M 249.851562 48.226562 " fill-opacity="1" fill-rule="nonzero"/></g><g clip-path="url(#29c79764d3)"><path fill="#9fbb73" d="M 249.851562 223.4375 L 353.511719 223.4375 C 366.011719 223.4375 376.058594 233.824219 376.058594 246.71875 L 376.058594 349.0625 C 376.058594 361.949219 366.011719 372.339844 353.511719 372.339844 L 249.851562 372.339844 C 237.351562 372.339844 227.308594 361.949219 227.308594 349.0625 L 227.308594 246.71875 C 227.3125 233.824219 237.351562 223.4375 249.851562 223.4375 Z M 249.851562 223.4375 " fill-opacity="1" fill-rule="nonzero"/></g></svg>