<svg xmlns="http://www.w3.org/2000/svg" xmlns:xlink="http://www.w3.org/1999/xlink" width="1080" zoomAndPan="magnify" viewBox="0 0 810 809.999993" height="1080" preserveAspectRatio="xMidYMid meet" version="1.0"><defs><clipPath id="690dd16660"><path d="M 52.253906 52.253906 L 758 52.253906 L 758 758 L 52.253906 758 Z M 52.253906 52.253906 " clip-rule="nonzero"/></clipPath><clipPath id="14dc638ce0"><path d="M 133.621094 282.539062 L 676.621094 282.539062 L 676.621094 526 L 133.621094 526 Z M 133.621094 282.539062 " clip-rule="nonzero"/></clipPath></defs><g clip-path="url(#690dd16660)"><path fill="#9fbb73" d="M 757.746094 405 C 757.746094 410.773438 757.605469 416.542969 757.320312 422.308594 C 757.039062 428.074219 756.613281 433.828125 756.046875 439.574219 C 755.480469 445.320312 754.773438 451.046875 753.929688 456.757812 C 753.082031 462.46875 752.09375 468.15625 750.96875 473.816406 C 749.839844 479.480469 748.578125 485.109375 747.175781 490.710938 C 745.773438 496.308594 744.230469 501.871094 742.554688 507.398438 C 740.878906 512.921875 739.070312 518.402344 737.125 523.835938 C 735.179688 529.273438 733.105469 534.65625 730.894531 539.988281 C 728.683594 545.324219 726.347656 550.597656 723.878906 555.816406 C 721.410156 561.035156 718.816406 566.191406 716.09375 571.28125 C 713.371094 576.375 710.527344 581.394531 707.558594 586.347656 C 704.59375 591.300781 701.503906 596.175781 698.296875 600.976562 C 695.089844 605.773438 691.765625 610.492188 688.328125 615.128906 C 684.890625 619.765625 681.339844 624.316406 677.675781 628.78125 C 674.015625 633.242188 670.246094 637.613281 666.367188 641.890625 C 662.492188 646.167969 658.511719 650.347656 654.429688 654.429688 C 650.347656 658.511719 646.167969 662.492188 641.890625 666.367188 C 637.613281 670.246094 633.242188 674.015625 628.78125 677.675781 C 624.316406 681.339844 619.765625 684.890625 615.128906 688.328125 C 610.492188 691.765625 605.773438 695.089844 600.976562 698.296875 C 596.175781 701.503906 591.300781 704.59375 586.347656 707.558594 C 581.394531 710.527344 576.375 713.371094 571.28125 716.09375 C 566.191406 718.816406 561.035156 721.410156 555.816406 723.878906 C 550.597656 726.347656 545.324219 728.683594 539.988281 730.894531 C 534.65625 733.105469 529.273438 735.179688 523.835938 737.125 C 518.402344 739.070312 512.921875 740.882812 507.398438 742.558594 C 501.871094 744.230469 496.308594 745.773438 490.710938 747.175781 C 485.109375 748.578125 479.480469 749.839844 473.816406 750.96875 C 468.15625 752.09375 462.46875 753.082031 456.757812 753.929688 C 451.046875 754.773438 445.320312 755.480469 439.574219 756.046875 C 433.828125 756.613281 428.074219 757.039062 422.308594 757.320312 C 416.542969 757.605469 410.773438 757.746094 405 757.746094 C 399.226562 757.746094 393.457031 757.605469 387.691406 757.320312 C 381.925781 757.039062 376.167969 756.613281 370.425781 756.046875 C 364.679688 755.480469 358.953125 754.773438 353.242188 753.929688 C 347.53125 753.082031 341.84375 752.09375 336.183594 750.96875 C 330.519531 749.839844 324.890625 748.578125 319.289062 747.175781 C 313.6875 745.773438 308.128906 744.230469 302.601562 742.558594 C 297.078125 740.882812 291.597656 739.070312 286.164062 737.125 C 280.726562 735.179688 275.34375 733.105469 270.007812 730.894531 C 264.675781 728.683594 259.398438 726.347656 254.179688 723.878906 C 248.960938 721.410156 243.808594 718.816406 238.714844 716.09375 C 233.625 713.371094 228.605469 710.527344 223.652344 707.558594 C 218.699219 704.59375 213.824219 701.503906 209.023438 698.296875 C 204.222656 695.089844 199.507812 691.765625 194.867188 688.328125 C 190.230469 684.890625 185.683594 681.339844 181.21875 677.675781 C 176.757812 674.015625 172.386719 670.246094 168.109375 666.367188 C 163.832031 662.492188 159.652344 658.511719 155.570312 654.429688 C 151.488281 650.347656 147.507812 646.167969 143.632812 641.890625 C 139.753906 637.613281 135.984375 633.242188 132.324219 628.78125 C 128.660156 624.316406 125.109375 619.765625 121.671875 615.128906 C 118.234375 610.492188 114.910156 605.773438 111.703125 600.976562 C 108.496094 596.175781 105.40625 591.300781 102.4375 586.347656 C 99.472656 581.394531 96.625 576.375 93.90625 571.28125 C 91.183594 566.191406 88.589844 561.035156 86.121094 555.816406 C 83.652344 550.597656 81.3125 545.324219 79.105469 539.988281 C 76.894531 534.65625 74.820312 529.273438 72.875 523.835938 C 70.929688 518.402344 69.117188 512.921875 67.441406 507.398438 C 65.765625 501.871094 64.226562 496.308594 62.824219 490.710938 C 61.421875 485.109375 60.15625 479.480469 59.03125 473.816406 C 57.90625 468.15625 56.917969 462.46875 56.070312 456.757812 C 55.222656 451.046875 54.519531 445.320312 53.953125 439.574219 C 53.386719 433.828125 52.960938 428.074219 52.679688 422.308594 C 52.394531 416.542969 52.253906 410.773438 52.253906 405 C 52.253906 399.226562 52.394531 393.457031 52.679688 387.691406 C 52.960938 381.925781 53.386719 376.167969 53.953125 370.425781 C 54.519531 364.679688 55.222656 358.953125 56.070312 353.242188 C 56.917969 347.53125 57.90625 341.84375 59.03125 336.183594 C 60.15625 330.519531 61.421875 324.890625 62.824219 319.289062 C 64.226562 313.691406 65.765625 308.128906 67.441406 302.601562 C 69.117188 297.078125 70.929688 291.597656 72.875 286.164062 C 74.820312 280.726562 76.894531 275.34375 79.105469 270.007812 C 81.3125 264.675781 83.652344 259.398438 86.121094 254.179688 C 88.589844 248.960938 91.183594 243.808594 93.90625 238.714844 C 96.625 233.625 99.472656 228.605469 102.4375 223.652344 C 105.40625 218.699219 108.496094 213.824219 111.703125 209.023438 C 114.910156 204.222656 118.234375 199.507812 121.671875 194.871094 C 125.109375 190.230469 128.660156 185.683594 132.324219 181.21875 C 135.984375 176.757812 139.753906 172.386719 143.632812 168.109375 C 147.507812 163.832031 151.488281 159.652344 155.570312 155.570312 C 159.652344 151.488281 163.832031 147.507812 168.109375 143.632812 C 172.386719 139.753906 176.757812 135.984375 181.21875 132.324219 C 185.683594 128.660156 190.230469 125.109375 194.867188 121.671875 C 199.507812 118.234375 204.222656 114.910156 209.023438 111.703125 C 213.824219 108.496094 218.699219 105.40625 223.652344 102.4375 C 228.605469 99.472656 233.625 96.625 238.714844 93.90625 C 243.808594 91.183594 248.960938 88.589844 254.179688 86.121094 C 259.398438 83.652344 264.675781 81.3125 270.007812 79.105469 C 275.34375 76.894531 280.726562 74.820312 286.164062 72.875 C 291.597656 70.929688 297.078125 69.117188 302.601562 67.441406 C 308.128906 65.765625 313.6875 64.226562 319.289062 62.824219 C 324.890625 61.421875 330.519531 60.15625 336.183594 59.03125 C 341.84375 57.90625 347.53125 56.917969 353.242188 56.070312 C 358.953125 55.226562 364.679688 54.519531 370.425781 53.953125 C 376.167969 53.386719 381.925781 52.960938 387.691406 52.679688 C 393.457031 52.394531 399.226562 52.253906 405 52.253906 C 410.773438 52.253906 416.542969 52.394531 422.308594 52.679688 C 428.074219 52.960938 433.828125 53.386719 439.574219 53.953125 C 445.320312 54.519531 451.046875 55.226562 456.757812 56.070312 C 462.46875 56.917969 468.15625 57.90625 473.816406 59.03125 C 479.480469 60.15625 485.109375 61.421875 490.710938 62.824219 C 496.308594 64.226562 501.871094 65.765625 507.398438 67.441406 C 512.921875 69.117188 518.402344 70.929688 523.835938 72.875 C 529.273438 74.820312 534.65625 76.894531 539.988281 79.105469 C 545.324219 81.3125 550.597656 83.652344 555.816406 86.121094 C 561.035156 88.589844 566.191406 91.183594 571.285156 93.90625 C 576.375 96.625 581.394531 99.472656 586.347656 102.4375 C 591.300781 105.40625 596.175781 108.496094 600.976562 111.703125 C 605.773438 114.910156 610.492188 118.234375 615.128906 121.671875 C 619.765625 125.109375 624.316406 128.660156 628.78125 132.324219 C 633.242188 135.984375 637.613281 139.753906 641.890625 143.632812 C 646.167969 147.507812 650.347656 151.488281 654.429688 155.570312 C 658.511719 159.652344 662.492188 163.832031 666.367188 168.109375 C 670.246094 172.386719 674.015625 176.757812 677.675781 181.21875 C 681.339844 185.683594 684.890625 190.230469 688.328125 194.871094 C 691.765625 199.507812 695.089844 204.222656 698.296875 209.023438 C 701.503906 213.824219 704.59375 218.699219 707.558594 223.652344 C 710.527344 228.605469 713.371094 233.625 716.09375 238.714844 C 718.816406 243.808594 721.410156 248.960938 723.878906 254.179688 C 726.347656 259.398438 728.683594 264.675781 730.894531 270.007812 C 733.105469 275.34375 735.179688 280.726562 737.125 286.164062 C 739.070312 291.597656 740.878906 297.078125 742.558594 302.601562 C 744.234375 308.128906 745.773438 313.691406 747.175781 319.289062 C 748.578125 324.890625 749.839844 330.519531 750.96875 336.183594 C 752.09375 341.84375 753.082031 347.53125 753.929688 353.242188 C 754.773438 358.953125 755.480469 364.679688 756.046875 370.425781 C 756.613281 376.167969 757.039062 381.925781 757.320312 387.691406 C 757.605469 393.457031 757.746094 399.226562 757.746094 405 Z M 757.746094 405 " fill-opacity="1" fill-rule="nonzero"/></g><g clip-path="url(#14dc638ce0)"><path fill="#f1eb90" d="M 650.113281 377.859375 L 373.296875 377.859375 C 361.25 323.566406 312.792969 282.8125 254.929688 282.8125 C 188.042969 282.8125 133.621094 337.234375 133.621094 404.121094 C 133.621094 471.007812 188.042969 525.429688 254.929688 525.429688 C 312.792969 525.429688 361.25 484.671875 373.296875 430.382812 L 520.90625 430.382812 L 520.90625 491.660156 C 520.90625 506.167969 532.667969 517.921875 547.167969 517.921875 C 561.667969 517.921875 573.429688 506.167969 573.429688 491.660156 L 573.429688 430.382812 L 623.851562 430.382812 L 623.851562 491.660156 C 623.851562 506.167969 635.613281 517.921875 650.113281 517.921875 C 664.613281 517.921875 676.375 506.167969 676.375 491.660156 L 676.375 404.121094 C 676.375 389.613281 664.613281 377.859375 650.113281 377.859375 Z M 254.929688 472.90625 C 217.007812 472.90625 186.148438 442.050781 186.148438 404.121094 C 186.148438 366.1875 217.007812 335.335938 254.929688 335.335938 C 292.855469 335.335938 323.714844 366.1875 323.714844 404.121094 C 323.714844 442.050781 292.855469 472.90625 254.929688 472.90625 Z M 254.929688 472.90625 " fill-opacity="1" fill-rule="nonzero"/></g></svg>