<svg width="100%" height="100%" id="svg" viewBox="0 0 1440 690" xmlns="http://www.w3.org/2000/svg" class="transition duration-300 ease-in-out delay-150"><defs><linearGradient id="gradient" x1="3%" y1="34%" x2="97%" y2="66%"><stop offset="5%" stop-color="#f1eb90"></stop><stop offset="95%" stop-color="#9fbb73"></stop></linearGradient></defs><path d="M 0,700 L 0,175 C 77.59230769230771,133.10000000000002 155.18461538461543,91.20000000000002 244,114 C 332.8153846153846,136.79999999999998 432.8538461538461,224.29999999999998 500,230 C 567.1461538461539,235.70000000000002 601.4000000000001,159.60000000000002 679,161 C 756.5999999999999,162.39999999999998 877.5461538461536,241.3 962,239 C 1046.4538461538464,236.7 1094.4153846153847,153.2 1168,129 C 1241.5846153846153,104.80000000000001 1340.7923076923075,139.9 1440,175 L 1440,700 L 0,700 Z" stroke="none" stroke-width="0" fill="url(#gradient)" fill-opacity="0.53" class="transition-all duration-300 ease-in-out delay-150 path-0"></path><defs><linearGradient id="gradient" x1="3%" y1="34%" x2="97%" y2="66%"><stop offset="5%" stop-color="#f1eb90"></stop><stop offset="95%" stop-color="#9fbb73"></stop></linearGradient></defs><path d="M 0,700 L 0,408 C 77.83589743589741,353.76666666666665 155.67179487179482,299.53333333333336 248,323 C 340.3282051282052,346.46666666666664 447.14871794871794,447.6333333333333 523,461 C 598.851282051282,474.3666666666667 643.7333333333333,399.93333333333334 702,400 C 760.2666666666667,400.06666666666666 831.9179487179488,474.6333333333333 928,487 C 1024.0820512820512,499.3666666666667 1144.5948717948718,449.5333333333333 1234,426 C 1323.4051282051282,402.4666666666667 1381.702564102564,405.23333333333335 1440,408 L 1440,700 L 0,700 Z" stroke="none" stroke-width="0" fill="url(#gradient)" fill-opacity="1" class="transition-all duration-300 ease-in-out delay-150 path-1"></path></svg>